<?xml version="1.0" encoding="utf-8"?>
<!-- Generator: Adobe Illustrator 17.1.0, SVG Export Plug-In . SVG Version: 6.00 Build 0)  -->
<!DOCTYPE svg PUBLIC "-//W3C//DTD SVG 1.1//EN" "http://www.w3.org/Graphics/SVG/1.1/DTD/svg11.dtd">
<svg version="1.1" id="Layer_1" xmlns="http://www.w3.org/2000/svg" xmlns:xlink="http://www.w3.org/1999/xlink" x="0px" y="0px"
	 viewBox="0 0 87 87" enable-background="new 0 0 87 87" xml:space="preserve">
<g>
	<path fill="#56B349" d="M86.671,43.496c0,23.848-19.33,43.174-43.171,43.174c-23.842,0-43.17-19.326-43.17-43.174
		C0.33,19.654,19.658,0.33,43.5,0.33C67.34,0.33,86.671,19.653,86.671,43.496z"/>
	<path fill="#FFFFFF" d="M67.654,28.545l-3.318-3.254c-1.091-1.07-2.854-1.051-3.923,0.038l-23.732,24.2L26.5,39.547
		c-1.088-1.068-2.854-1.051-3.922,0.039l-3.256,3.32c-1.068,1.09-1.049,2.855,0.04,3.922l15.482,15.181
		c1.09,1.068,2.854,1.051,3.921-0.039l3.259-3.321l0.004-0.006l25.666-26.177C68.764,31.379,68.747,29.613,67.654,28.545z"/>
</g>
</svg>
